<svg width="182" height="176" viewBox="0 0 182 176" fill="none" xmlns="http://www.w3.org/2000/svg">
<path d="M21.6617 84.4021L15.0569 74.4193L6.28941 85.1451L9.27413 92.4914L17.5198 101.904L28.9374 106.591L41.2152 94.9164L34.6202 92.1235L21.6617 84.4021Z" fill="white"/>
<path d="M122.489 140.996C122.489 140.996 118.873 137.291 114.23 134.808M122.489 140.996C123.672 142.125 126.234 144.756 127.019 146.243M122.489 140.996C122.429 141.814 119.253 143.918 114.979 142.92M114.979 142.92C112.284 142.29 109.151 140.426 106.088 136.227C98.1693 125.369 107.771 113.106 111.665 108.696C115.559 104.286 126.283 95.0089 137.038 97.5797C147.792 100.15 159.011 111.695 160.751 115.397C161.692 117.4 163.536 121.365 162.46 127.367M114.979 142.92C113.948 144.821 116.078 147.381 116.829 148.183C121.169 152.821 132.31 158.417 143.271 153.058M143.271 153.058C145.915 151.765 148.549 149.835 151.074 147.1C158.531 139.024 161.547 132.462 162.46 127.367M143.271 153.058L154.134 160.285C160.404 157.593 172.771 143.539 173.321 135.98L162.46 127.367" stroke="#070718" stroke-width="4"/>
<path d="M30.0585 42.7762C32.9765 38.626 44.6239 32.0933 54.1179 35.9089C65.9854 40.6784 75.422 48.3579 73.6396 66.0165C71.8572 83.675 50.9269 95.4218 42.1086 94.6416M30.0585 42.7762C21.908 39.4351 14.0332 46.68 13.4235 64.9065C13.3082 68.3526 13.9317 71.5228 15.0794 74.4049M30.0585 42.7762C32.1543 43.6353 36.346 45.3535 35.4695 50.592C34.8731 54.1566 33.8945 60.4692 31.2565 64.2058M42.1086 94.6416C34.9405 94.0074 20.0647 86.9248 15.0794 74.4049M42.1086 94.6416L29.0466 106.581C13.4494 104.748 7.59838 90.8542 6.62254 84.1365C7.96696 83.1187 12.8206 77.2247 15.0794 74.4049M20.9358 58.6247C20.0702 60.6466 19.7241 66.6302 25.5166 67.188C28.0153 67.4286 29.8663 66.1749 31.2565 64.2058M31.2565 64.2058C33.5173 70.0605 44.8944 83.1747 57.7077 75.9692" stroke="white" stroke-width="4"/>
<path d="M139.096 55.1096L98.8976 89.8809L105.92 62.0476L89.936 75.6945L89.0681 42.5435" stroke="#070718" stroke-width="4"/>
<path d="M60.591 108.134L71.7144 105.699L57.5268 133.507" stroke="#070718" stroke-width="4"/>
<path d="M74.8 128.507L64.1486 159.175" stroke="white" stroke-width="4"/>
<path d="M110.191 5.08569L107.175 37.2441" stroke="white" stroke-width="4"/>
<path d="M87.0076 113.516L90.8438 161.6" stroke="white" stroke-width="4"/>
<path d="M169.293 58.0137L139.014 75.7814" stroke="white" stroke-width="4"/>
<path d="M154.471 143.32L144.141 153.129L153.611 159.682L155.919 159.475L166.575 148.58L173.131 136.784L162.158 127.616L154.471 143.32Z" fill="#070718"/>
</svg>
